<?xml version="1.0" standalone="no"?>
<!DOCTYPE svg PUBLIC "-//W3C//DTD SVG 20010904//EN"
 "http://www.w3.org/TR/2001/REC-SVG-20010904/DTD/svg10.dtd">
<svg version="1.0" xmlns="http://www.w3.org/2000/svg"
 width="50.000000pt" height="50.000000pt" viewBox="0 0 50.000000 50.000000"
 preserveAspectRatio="xMidYMid meet">

<g transform="translate(0.000000,50.000000) scale(0.100000,-0.100000)"
fill="#000000" stroke="none">
<path d="M110 260 l0 -190 45 0 45 0 0 55 0 55 43 0 c54 0 106 26 134 69 27
41 29 84 5 131 -26 53 -70 70 -179 70 l-93 0 0 -190z m178 88 c15 -15 15 -51
0 -66 -7 -7 -29 -12 -50 -12 l-38 0 0 45 0 45 38 0 c21 0 43 -5 50 -12z"/>
</g>
</svg>
